# This file uses centimeters as units for non-parametric coordinates.

mtllib Table Texture.mtl
g default
v -1.734849 3.487174 1.693624
v 1.734849 3.487174 1.693624
v -1.734849 3.769888 1.693624
v 1.734849 3.769888 1.693624
v -1.734849 3.769888 -1.776074
v 1.734849 3.769888 -1.776074
v -1.734849 3.487174 -1.776074
v 1.734849 3.487174 -1.776074
v 1.734849 3.487174 1.436025
v -1.734849 3.487174 1.436025
v -1.734849 3.769888 1.436025
v 1.734849 3.769888 1.436025
v 1.734849 3.487174 1.159945
v -1.734849 3.487174 1.159945
v -1.734849 3.769888 1.159945
v 1.734849 3.769888 1.159945
v 1.734849 3.487174 -1.393595
v -1.734849 3.487174 -1.393595
v -1.734849 3.769888 -1.393595
v 1.734849 3.769888 -1.393595
v 1.734849 3.487174 -1.019078
v -1.734849 3.487174 -1.019078
v -1.734849 3.769888 -1.019078
v 1.734849 3.769888 -1.019078
v 1.535817 3.487174 1.693624
v 1.535817 3.769888 1.693624
v 1.535817 3.769888 1.436025
v 1.535817 3.769888 1.159945
v 1.535817 3.769888 -1.019078
v 1.535817 3.769888 -1.393595
v 1.535817 3.769888 -1.776074
v 1.535817 3.487174 -1.776074
v 1.535817 3.487174 -1.393595
v 1.535817 3.487174 -1.064177
v 1.535817 3.487174 1.159945
v 1.535817 3.487174 1.436025
v 1.290163 3.487173 1.693624
v 1.290163 3.769888 1.693624
v 1.290163 3.769888 1.436025
v 1.290163 3.769888 1.159945
v 1.290163 3.769888 -1.019078
v 1.290163 3.769888 -1.393595
v 1.290163 3.769888 -1.776074
v 1.290163 3.487174 -1.776074
v 1.290163 3.487174 -1.393595
v 1.290163 3.487174 -1.064177
v 1.290163 3.487174 1.159945
v 1.290163 3.487174 1.436025
v -1.399641 3.487174 1.693624
v -1.399641 3.769888 1.693624
v -1.399641 3.769888 1.436025
v -1.399641 3.769888 1.159945
v -1.399641 3.769888 -1.019078
v -1.399641 3.769888 -1.393595
v -1.399641 3.769888 -1.776074
v -1.399641 3.487174 -1.776074
v -1.399641 3.487174 -1.393595
v -1.399641 3.487174 -1.064177
v -1.399641 3.487174 1.159945
v -1.399641 3.487174 1.436025
v -0.985240 3.487173 1.693624
v -0.985240 3.769888 1.693624
v -0.985240 3.769888 1.436025
v -0.985240 3.769888 1.159945
v -0.985240 3.769888 -1.019078
v -0.985240 3.769888 -1.393595
v -0.985240 3.769888 -1.776074
v -0.985240 3.487174 -1.776074
v -1.075283 3.487174 -1.393595
v -1.075283 3.487174 -1.064177
v -1.075283 3.487174 1.159945
v -1.075283 3.487174 1.436025
v 1.290163 -0.000656 -1.393595
v 1.290163 -0.000656 -1.064177
v 1.535817 -0.000656 -1.393595
v 1.535817 -0.000656 -1.064177
v 1.290163 -0.000656 1.159945
v 1.290163 -0.000656 1.436025
v 1.535817 -0.000656 1.159945
v 1.535817 -0.000656 1.436025
v -1.399641 -0.000656 -1.393595
v -1.399641 -0.000656 -1.064177
v -1.075283 -0.000656 -1.393595
v -1.075283 -0.000656 -1.064177
v -1.399641 -0.000656 1.159945
v -1.399641 -0.000656 1.436025
v -1.075283 -0.000656 1.159945
v -1.075283 -0.000656 1.436025
vt 0.003934 0.505911
vt 0.424547 0.591258
vt 0.004096 0.471196
vt 0.424647 0.557041
vt 0.428146 0.549781
vt 0.007095 0.550280
vt 0.855548 0.009610
vt 0.855548 0.426857
vt 0.438301 0.009610
vt 0.438301 0.426857
vt 0.004607 0.590042
vt 0.004706 0.555824
vt 0.429979 0.507891
vt 0.430140 0.473176
vt 0.469278 0.426857
vt 0.393370 0.591168
vt 0.035565 0.506058
vt 0.469278 0.009610
vt 0.035726 0.471343
vt 0.397575 0.006242
vt 0.397575 0.427508
vt 0.393469 0.556951
vt 0.502478 0.426857
vt 0.359956 0.591071
vt 0.069465 0.506215
vt 0.502478 0.009610
vt 0.069626 0.471501
vt 0.364056 0.006242
vt 0.364056 0.427508
vt 0.360055 0.556854
vt 0.809553 0.426857
vt 0.050899 0.590176
vt 0.383014 0.507673
vt 0.809553 0.009610
vt 0.383176 0.472958
vt 0.054023 0.006242
vt 0.054023 0.427508
vt 0.050998 0.555958
vt 0.764515 0.426857
vt 0.096227 0.590307
vt 0.337027 0.507459
vt 0.764515 0.009610
vt 0.337189 0.472744
vt 0.099494 0.006242
vt 0.099494 0.427508
vt 0.096326 0.556090
vt 0.407307 0.432856
vt 0.438301 0.402923
vt 0.407307 0.467725
vt 0.397575 0.403343
vt 0.364056 0.403343
vt 0.099494 0.403343
vt 0.054023 0.403343
vt 0.031248 0.550252
vt 0.855548 0.402923
vt 0.961664 0.360296
vt 0.679511 0.787133
vt 0.990572 0.359573
vt 0.708284 0.787133
vt 0.377009 0.432856
vt 0.438301 0.373382
vt 0.377009 0.467725
vt 0.397575 0.373518
vt 0.364056 0.373518
vt 0.099494 0.373518
vt 0.054023 0.373518
vt 0.061058 0.550216
vt 0.855548 0.373382
vt 0.757587 0.786091
vt 0.655068 0.787133
vt 0.794877 0.786903
vt 0.683841 0.787133
vt 0.045261 0.432856
vt 0.438301 0.049920
vt 0.045261 0.467725
vt 0.397575 0.046941
vt 0.364056 0.046941
vt 0.099494 0.046941
vt 0.054023 0.046941
vt 0.387468 0.549829
vt 0.855548 0.049920
vt 0.719431 0.786903
vt 0.618211 0.787732
vt 0.826539 0.786091
vt 0.582844 0.787133
vt 0.096371 0.432856
vt 0.438301 0.099754
vt 0.096371 0.467725
vt 0.397575 0.097254
vt 0.364056 0.097254
vt 0.099494 0.097254
vt 0.054023 0.097254
vt 0.337180 0.549889
vt 0.855548 0.099754
vt 0.897338 0.359573
vt 0.650485 0.787732
vt 0.933474 0.360296
vt 0.615118 0.787133
vt 0.655068 0.440087
vt 0.757587 0.436874
vt 0.961664 0.703979
vt 0.679511 0.440087
vt 0.683841 0.440087
vt 0.794877 0.437686
vt 0.990572 0.703256
vt 0.708284 0.440087
vt 0.618211 0.440686
vt 0.719431 0.437686
vt 0.897338 0.703256
vt 0.650485 0.440686
vt 0.582844 0.440087
vt 0.826539 0.436874
vt 0.933474 0.703979
vt 0.615118 0.440087
vt 0.007585 0.097254
vt 0.007585 0.373518
vt 0.428851 0.097254
vt 0.428851 0.373518
vt 0.007585 0.046941
vt 0.428851 0.046941
vt 0.007585 0.403343
vt 0.428851 0.403343
vt 0.007585 0.427508
vt 0.428851 0.427508
vt 0.428851 0.006242
vt 0.007585 0.006242
vt 0.431855 0.432856
vt 0.431855 0.467725
vt 0.003918 0.432856
vt 0.003918 0.467725
vt 0.337140 0.515581
vt 0.061017 0.515909
vt 0.387428 0.515521
vt 0.031207 0.515944
vt 0.007054 0.515972
vt 0.428106 0.515473
vt 0.469278 0.088926
vt 0.469278 0.373382
vt 0.502478 0.088926
vt 0.502478 0.373382
vt 0.769939 0.088926
vt 0.769939 0.373382
vt 0.809553 0.088926
vt 0.809553 0.373382
vt 0.469278 0.049920
vt 0.502478 0.049920
vt 0.769939 0.049920
vt 0.809553 0.049920
vt 0.469278 0.402923
vt 0.769939 0.402923
vt 0.502478 0.402923
vt 0.809553 0.402923
vt 0.438524 0.432741
vt 0.472093 0.432741
vt 0.472093 0.472180
vt 0.438524 0.472180
vt 0.434406 0.549652
vt 0.474461 0.549652
vt 0.474461 0.589091
vt 0.434406 0.589091
vt 0.438296 0.476300
vt 0.471865 0.476300
vt 0.471865 0.506170
vt 0.438296 0.506170
vt 0.436018 0.512435
vt 0.476072 0.512435
vt 0.476072 0.542305
vt 0.436018 0.542305
vt 0.958065 0.353754
vt 0.930713 0.353754
vt 0.930713 0.008210
vt 0.958065 0.008210
vt 0.994290 0.354596
vt 0.961654 0.354596
vt 0.961654 0.009053
vt 0.994290 0.009053
vt 0.887894 0.353754
vt 0.860542 0.353754
vt 0.860542 0.008210
vt 0.887894 0.008210
vt 0.925209 0.353754
vt 0.892573 0.353754
vt 0.892573 0.008210
vt 0.925209 0.008210
vt 0.901513 0.360296
vt 0.901513 0.703979
vt 0.865377 0.359573
vt 0.865377 0.703256
vt 0.966366 0.359573
vt 0.966366 0.703256
vt 0.937457 0.360296
vt 0.937457 0.703979
vt 0.854181 0.786091
vt 0.854181 0.436874
vt 0.752414 0.786903
vt 0.752414 0.437686
vt 0.822520 0.786903
vt 0.822520 0.437686
vt 0.790569 0.786091
vt 0.790569 0.436874
vn 0.000000 0.000000 1.000000
vn 0.000000 0.000000 1.000000
vn 0.000000 0.000000 1.000000
vn 0.000000 0.000000 1.000000
vn 0.000000 1.000000 0.000000
vn 0.000000 1.000000 0.000000
vn 0.000000 1.000000 0.000000
vn 0.000000 1.000000 0.000000
vn 0.000000 0.000000 -1.000000
vn 0.000000 0.000000 -1.000000
vn 0.000000 0.000000 -1.000000
vn 0.000000 0.000000 -1.000000
vn 0.000000 -1.000000 0.000000
vn 0.000000 -1.000000 0.000000
vn 0.000000 -1.000000 0.000000
vn 0.000000 -1.000000 0.000000
vn 1.000000 0.000000 0.000000
vn 1.000000 0.000000 0.000000
vn 1.000000 0.000000 0.000000
vn 1.000000 0.000000 0.000000
vn -1.000000 0.000000 0.000000
vn -1.000000 0.000000 0.000000
vn -1.000000 0.000000 0.000000
vn -1.000000 0.000000 0.000000
vn 0.000000 -1.000000 0.000000
vn -0.000000 -1.000000 -0.000000
vn -0.000000 -1.000000 -0.000000
vn 0.000000 -1.000000 0.000000
vn -1.000000 0.000000 0.000000
vn -1.000000 0.000000 0.000000
vn -1.000000 0.000000 0.000000
vn -1.000000 0.000000 0.000000
vn 0.000000 1.000000 0.000000
vn 0.000000 1.000000 0.000000
vn 0.000000 1.000000 0.000000
vn 0.000000 1.000000 0.000000
vn 1.000000 0.000000 0.000000
vn 1.000000 0.000000 0.000000
vn 1.000000 0.000000 0.000000
vn 1.000000 0.000000 0.000000
vn 0.000000 -1.000000 0.000000
vn 0.000000 -1.000000 0.000000
vn -1.000000 0.000000 0.000000
vn -1.000000 0.000000 0.000000
vn 0.000000 1.000000 0.000000
vn 0.000000 1.000000 0.000000
vn 1.000000 0.000000 0.000000
vn 1.000000 0.000000 0.000000
vn 0.000000 -1.000000 0.000000
vn 0.000000 -1.000000 0.000000
vn -1.000000 0.000000 0.000000
vn -1.000000 0.000000 0.000000
vn 0.000000 1.000000 0.000000
vn 0.000000 1.000000 0.000000
vn 1.000000 0.000000 0.000000
vn 1.000000 0.000000 0.000000
vn 0.000000 0.000000 1.000000
vn 0.000000 0.000000 1.000000
vn 0.000000 0.000000 1.000000
vn 0.000000 0.000000 1.000000
vn -0.000000 1.000000 0.000000
vn -0.000000 1.000000 0.000000
vn 0.000000 1.000000 0.000000
vn 0.000000 1.000000 0.000000
vn 0.000000 1.000000 0.000000
vn 0.000000 1.000000 0.000000
vn 0.000000 1.000000 0.000000
vn 0.000000 1.000000 0.000000
vn 0.000000 1.000000 0.000000
vn 0.000000 1.000000 0.000000
vn 0.000000 1.000000 0.000000
vn 0.000000 1.000000 0.000000
vn 0.000000 0.000000 -1.000000
vn 0.000000 0.000000 -1.000000
vn 0.000000 0.000000 -1.000000
vn 0.000000 0.000000 -1.000000
vn 0.000000 -1.000000 0.000000
vn 0.000000 -1.000000 0.000000
vn 0.000000 -1.000000 0.000000
vn 0.000000 -1.000000 0.000000
vn 0.000000 -1.000000 0.000000
vn 0.000000 -1.000000 0.000000
vn 0.000000 -1.000000 0.000000
vn 0.000000 -1.000000 0.000000
vn 0.000000 -1.000000 -0.000000
vn 0.000000 -1.000000 0.000000
vn 0.000000 -1.000000 -0.000000
vn 0.000000 -1.000000 0.000000
vn 0.000000 0.000000 1.000000
vn 0.000000 0.000000 1.000000
vn -0.000000 1.000000 0.000000
vn -0.000000 1.000000 0.000000
vn 0.000000 1.000000 0.000000
vn 0.000000 1.000000 0.000000
vn 0.000000 1.000000 0.000000
vn 0.000000 1.000000 0.000000
vn 0.000000 0.000000 -1.000000
vn 0.000000 0.000000 -1.000000
vn 0.000000 -1.000000 0.000000
vn 0.000000 -1.000000 0.000000
vn 0.000000 -1.000000 0.000000
vn 0.000000 -1.000000 0.000000
vn 0.000000 -1.000000 0.000000
vn 0.000000 -1.000000 0.000000
vn 0.000000 -1.000000 0.000000
vn 0.000000 -1.000000 0.000000
vn 0.000000 -1.000000 0.000000
vn 0.000000 -1.000000 0.000000
vn 0.000000 -1.000000 0.000000
vn 0.000000 -1.000000 0.000000
vn 0.000000 -1.000000 -0.000000
vn 0.000000 -1.000000 -0.000000
vn 0.000000 0.000000 1.000000
vn 0.000000 0.000000 1.000000
vn 0.000000 1.000000 0.000000
vn 0.000000 1.000000 0.000000
vn 0.000000 1.000000 0.000000
vn 0.000000 1.000000 0.000000
vn 0.000000 1.000000 0.000000
vn 0.000000 1.000000 0.000000
vn 0.000000 0.000000 -1.000000
vn 0.000000 0.000000 -1.000000
vn 0.000000 -1.000000 0.000000
vn 0.000000 -1.000000 0.000000
vn 0.000000 -1.000000 0.000000
vn 0.000000 -1.000000 0.000000
vn 0.000000 -1.000000 0.000000
vn 0.000000 -1.000000 0.000000
vn 0.000000 -1.000000 0.000000
vn 0.000000 -1.000000 0.000000
vn 0.000000 -1.000000 0.000000
vn 0.000000 -1.000000 0.000000
vn 0.000000 -1.000000 0.000000
vn 0.000000 -1.000000 0.000000
vn -0.000000 -1.000000 -0.000000
vn -0.000000 -1.000000 -0.000000
vn -1.000000 0.000000 0.000000
vn -1.000000 0.000000 0.000000
vn -1.000000 0.000000 0.000000
vn -1.000000 0.000000 0.000000
vn 0.000000 0.000000 -1.000000
vn 0.000000 0.000000 -1.000000
vn 0.000000 0.000000 -1.000000
vn 0.000000 0.000000 -1.000000
vn 1.000000 0.000000 0.000000
vn 1.000000 0.000000 0.000000
vn 1.000000 0.000000 0.000000
vn 1.000000 0.000000 0.000000
vn 0.000000 0.000000 1.000000
vn 0.000000 0.000000 1.000000
vn 0.000000 0.000000 1.000000
vn 0.000000 0.000000 1.000000
vn -1.000000 0.000000 0.000000
vn -1.000000 0.000000 0.000000
vn -1.000000 0.000000 0.000000
vn -1.000000 0.000000 0.000000
vn 0.000000 0.000000 -1.000000
vn 0.000000 0.000000 -1.000000
vn 0.000000 0.000000 -1.000000
vn 0.000000 0.000000 -1.000000
vn 1.000000 0.000000 0.000000
vn 1.000000 0.000000 0.000000
vn 1.000000 0.000000 0.000000
vn 1.000000 0.000000 0.000000
vn 0.000001 0.000000 1.000000
vn 0.000001 0.000000 1.000000
vn 0.000001 0.000000 1.000000
vn 0.000001 0.000000 1.000000
vn -1.000000 0.000000 0.000000
vn -1.000000 0.000000 0.000000
vn -1.000000 0.000000 0.000000
vn -1.000000 0.000000 0.000000
vn 0.000000 0.000000 -1.000000
vn 0.000000 0.000000 -1.000000
vn 0.000000 0.000000 -1.000000
vn 0.000000 0.000000 -1.000000
vn 1.000000 0.000000 0.000000
vn 1.000000 0.000000 0.000000
vn 1.000000 0.000000 0.000000
vn 1.000000 0.000000 0.000000
vn 0.000000 0.000000 1.000000
vn 0.000000 0.000000 1.000000
vn 0.000000 0.000000 1.000000
vn 0.000000 0.000000 1.000000
vn -1.000000 0.000000 0.000000
vn -1.000000 0.000000 0.000000
vn -1.000000 0.000000 0.000000
vn -1.000000 0.000000 0.000000
vn 0.000000 0.000000 -1.000000
vn 0.000000 0.000000 -1.000000
vn 0.000000 0.000000 -1.000000
vn 0.000000 0.000000 -1.000000
vn 1.000000 0.000000 0.000000
vn 1.000000 0.000000 0.000000
vn 1.000000 0.000000 0.000000
vn 1.000000 0.000000 0.000000
vn 0.000000 0.000000 1.000000
vn 0.000000 0.000000 1.000000
vn 0.000000 0.000000 1.000000
vn 0.000000 0.000000 1.000000
s 1
g pCube1
usemtl initialShadingGroup
f 1/129/1 49/73/2 50/75/3 3/130/4
s 2
f 19/36/5 54/79/6 55/119/7 5/126/8
s 3
f 5/5/9 55/80/10 56/133/11 7/136/12
s 4
f 7/7/13 56/81/14 57/148/15 18/34/16
s 5
f 20/38/17 17/32/18 8/11/19 6/12/20
s 6
f 7/13/21 18/33/22 19/35/23 5/14/24
s 4
f 10/18/25 60/145/26 49/74/27 1/9/28
s 6
f 11/19/29 10/17/30 1/1/31 3/3/32
s 2
f 3/125/33 50/120/34 51/76/35 11/20/36
s 5
f 2/2/37 9/16/38 12/22/39 4/4/40
s 4
f 14/26/41 59/146/42 60/145/26 10/18/25
s 6
f 15/27/43 14/25/44 10/17/30 11/19/29
s 2
f 11/20/36 51/76/35 52/77/45 15/28/46
s 5
f 12/22/39 9/16/38 13/24/47 16/30/48
s 4
f 18/34/16 57/148/15 58/147/49 22/42/50
s 6
f 19/35/23 18/33/22 22/41/51 23/43/52
s 2
f 23/44/53 53/78/54 54/79/6 19/36/5
s 5
f 24/46/55 21/40/56 17/32/18 20/38/17
s 4
f 22/42/50 58/147/49 59/146/42 14/26/41
s 6
f 23/43/52 22/41/51 14/25/44 15/27/43
s 2
f 15/28/46 52/77/45 53/78/54 23/44/53
s 5
f 16/30/48 13/24/47 21/40/56 24/46/55
s 1
f 25/47/57 2/127/58 4/128/59 26/49/60
s 2
f 27/50/61 26/122/62 4/124/63 12/21/64
f 28/51/65 27/50/61 12/21/64 16/29/66
f 29/52/67 28/51/65 16/29/66 24/45/68
f 30/53/69 29/52/67 24/45/68 20/37/70
f 31/121/71 30/53/69 20/37/70 6/123/72
s 3
f 32/134/73 31/54/74 6/6/75 8/135/76
s 4
f 33/152/77 32/55/78 8/8/79 17/31/80
f 34/150/81 33/152/77 17/31/80 21/39/82
f 35/151/83 34/150/81 21/39/82 13/23/84
f 36/149/85 35/151/83 13/23/84 9/15/86
f 25/48/87 36/149/85 9/15/86 2/10/88
s 1
f 37/60/89 25/47/57 26/49/60 38/62/90
s 2
f 39/63/91 38/118/92 26/122/62 27/50/61
f 40/64/93 39/63/91 27/50/61 28/51/65
f 41/65/94 40/64/93 28/51/65 29/52/67
f 42/66/95 41/65/94 29/52/67 30/53/69
f 43/116/96 42/66/95 30/53/69 31/121/71
s 3
f 44/132/97 43/67/98 31/54/74 32/134/73
s 4
f 45/144/99 44/68/100 32/55/78 33/152/77
s off
f 74/165/101 73/166/102 75/167/103 76/168/104
s 4
f 47/140/105 46/142/106 34/150/81 35/151/83
s off
f 78/161/107 77/162/108 79/163/109 80/164/110
s 4
f 37/61/111 48/138/112 36/149/85 25/48/87
s 1
f 49/73/2 61/86/113 62/88/114 50/75/3
s 2
f 51/76/35 50/120/34 62/117/115 63/89/116
f 52/77/45 51/76/35 63/89/116 64/90/117
f 53/78/54 52/77/45 64/90/117 65/91/118
f 54/79/6 53/78/54 65/91/118 66/92/119
f 55/119/7 54/79/6 66/92/119 67/115/120
s 3
f 56/133/11 55/80/10 67/93/121 68/131/122
s 4
f 57/148/15 56/81/14 68/94/123 69/143/124
s off
f 82/157/125 81/158/126 83/159/127 84/160/128
s 4
f 59/146/42 58/147/49 70/141/129 71/139/130
s off
f 86/153/131 85/154/132 87/155/133 88/156/134
s 4
f 49/74/27 60/145/26 72/137/135 61/87/136
s 1
f 61/86/113 37/60/89 38/62/90 62/88/114
s 2
f 63/89/116 62/117/115 38/118/92 39/63/91
f 64/90/117 63/89/116 39/63/91 40/64/93
f 65/91/118 64/90/117 40/64/93 41/65/94
f 66/92/119 65/91/118 41/65/94 42/66/95
f 67/115/120 66/92/119 42/66/95 43/116/96
s 3
f 68/131/122 67/93/121 43/67/98 44/132/97
s 4
f 69/143/124 68/94/123 44/68/100 45/144/99
f 70/141/129 69/143/124 45/144/99 46/142/106
f 71/139/130 70/141/129 46/142/106 47/140/105
f 72/137/135 71/139/130 47/140/105 48/138/112
f 61/87/136 72/137/135 48/138/112 37/61/111
s off
f 46/199/137 45/69/138 73/100/139 74/200/140
f 45/191/141 33/56/142 75/101/143 73/192/144
f 33/181/145 34/182/146 76/183/147 75/184/148
f 34/57/149 46/70/150 74/99/151 76/102/152
f 48/197/153 47/71/154 77/104/155 78/198/156
f 47/189/157 35/58/158 79/105/159 77/190/160
f 35/177/161 36/178/162 80/179/163 79/180/164
f 36/59/165 48/72/166 78/103/167 80/106/168
f 58/195/169 57/82/170 81/108/171 82/196/172
f 57/187/173 69/95/174 83/109/175 81/188/176
f 69/173/177 70/174/178 84/175/179 83/176/180
f 70/96/181 58/83/182 82/107/183 84/110/184
f 60/193/185 59/84/186 85/112/187 86/194/188
f 59/185/189 71/97/190 87/113/191 85/186/192
f 71/169/193 72/170/194 88/171/195 87/172/196
f 72/98/197 60/85/198 86/111/199 88/114/200
